<?xml version="1.0" encoding="UTF-8" standalone="no"?>
<!-- Created with Inkscape (http://www.inkscape.org/) -->

<svg
   xmlns:dc="http://purl.org/dc/elements/1.1/"
   xmlns:cc="http://creativecommons.org/ns#"
   xmlns:rdf="http://www.w3.org/1999/02/22-rdf-syntax-ns#"
   xmlns:svg="http://www.w3.org/2000/svg"
   xmlns="http://www.w3.org/2000/svg"
   xmlns:sodipodi="http://sodipodi.sourceforge.net/DTD/sodipodi-0.dtd"
   xmlns:inkscape="http://www.inkscape.org/namespaces/inkscape"
   width="210mm"
   height="297mm"
   id="svg4656"
   version="1.1"
   inkscape:version="0.48.4 r9939"
   sodipodi:docname="Nuevo documento 3">
  <defs
     id="defs4658" />
  <sodipodi:namedview
     id="base"
     pagecolor="#ffffff"
     bordercolor="#666666"
     borderopacity="1.0"
     inkscape:pageopacity="0.0"
     inkscape:pageshadow="2"
     inkscape:zoom="0.53213619"
     inkscape:cx="372.04724"
     inkscape:cy="526.18109"
     inkscape:document-units="px"
     inkscape:current-layer="layer1"
     showgrid="false"
     inkscape:window-width="1366"
     inkscape:window-height="721"
     inkscape:window-x="0"
     inkscape:window-y="25"
     inkscape:window-maximized="1" />
  <metadata
     id="metadata4661">
    <rdf:RDF>
      <cc:Work
         rdf:about="">
        <dc:format>image/svg+xml</dc:format>
        <dc:type
           rdf:resource="http://purl.org/dc/dcmitype/StillImage" />
        <dc:title></dc:title>
      </cc:Work>
    </rdf:RDF>
  </metadata>
  <g
     inkscape:label="Capa 1"
     inkscape:groupmode="layer"
     id="layer1">
    <g
       id="g426"
       transform="matrix(10.555283,0,0,-10.555283,389.11729,382.58382)"
       inkscape:export-filename="/home/milena/borrado-diario/fierro.png"
       inkscape:export-xdpi="90"
       inkscape:export-ydpi="90">
      <path
         d="m 0,0 0,-1.766 c 0,-0.971 0.81,-1.766 1.799,-1.766 l 17.359,0 c 0.989,0 1.799,0.81 1.799,1.799 l 0,16.254 c 0,0.99 -0.81,1.799 -1.799,1.799 l -17.359,0 C 0.81,16.32 0,15.511 0,14.521 l 0,-3.443"
         style="fill:none;stroke:#313665;stroke-width:1;stroke-linecap:butt;stroke-linejoin:miter;stroke-miterlimit:10;stroke-opacity:1;stroke-dasharray:none"
         id="path428"
         inkscape:connector-curvature="0" />
    </g>
    <g
       id="g430"
       transform="matrix(10.555283,0,0,-10.555283,209.51282,288.66815)"
       inkscape:export-filename="/home/milena/borrado-diario/fierro.png"
       inkscape:export-xdpi="90"
       inkscape:export-ydpi="90">
      <path
         d="m 0,0 0,-5.112 c 0,-0.513 0.256,-0.754 0.754,-0.754 l 0.166,0 0,-1.176 -0.166,0 c -1.251,0 -1.93,0.663 -1.93,1.93 L -1.176,0 0,0 z m -0.588,1.162 c -0.362,0 -0.664,0.302 -0.664,0.679 0,0.362 0.302,0.663 0.664,0.663 0.375,0 0.678,-0.301 0.678,-0.663 0,-0.377 -0.303,-0.679 -0.678,-0.679"
         style="fill:#313665;fill-opacity:1;fill-rule:nonzero;stroke:none"
         id="path432"
         inkscape:connector-curvature="0" />
    </g>
    <g
       id="g434"
       transform="matrix(10.555283,0,0,-10.555283,270.34925,310.94825)"
       inkscape:export-filename="/home/milena/borrado-diario/fierro.png"
       inkscape:export-xdpi="90"
       inkscape:export-ydpi="90">
      <path
         d="m 0,0 c 0.045,0.045 0.165,0.181 0.165,0.377 0,0.377 -0.36,0.559 -0.92,0.559 l -1.175,0 c -0.5,0 -0.756,-0.257 -0.756,-0.755 l 0,-2.866 L 0,0 z m -1.93,2.111 0.828,0 c 1.614,0 2.565,-0.572 2.565,-1.523 0,-0.558 -0.348,-1.147 -0.845,-1.643 l -2.489,-2.488 1.373,-1.374 -0.829,-0.829 -1.736,1.719 c -0.451,0.452 -0.798,0.89 -0.798,1.78 l 0,2.428 c 0,1.252 0.677,1.93 1.931,1.93"
         style="fill:#313665;fill-opacity:1;fill-rule:nonzero;stroke:none"
         id="path436"
         inkscape:connector-curvature="0" />
    </g>
    <g
       id="g438"
       transform="matrix(10.555283,0,0,-10.555283,296.63503,288.66815)"
       inkscape:export-filename="/home/milena/borrado-diario/fierro.png"
       inkscape:export-xdpi="90"
       inkscape:export-ydpi="90">
      <path
         d="m 0,0 3.273,0 0,-1.175 -1.343,0 c -0.497,0 -0.753,-0.257 -0.753,-0.755 l 0,-5.112 L 0,-7.042 0,0 z"
         style="fill:#313665;fill-opacity:1;fill-rule:nonzero;stroke:none"
         id="path440"
         inkscape:connector-curvature="0" />
    </g>
    <g
       id="g442"
       transform="matrix(10.555283,0,0,-10.555283,336.6501,288.66815)"
       inkscape:export-filename="/home/milena/borrado-diario/fierro.png"
       inkscape:export-xdpi="90"
       inkscape:export-ydpi="90">
      <path
         d="m 0,0 3.271,0 0,-1.175 -1.341,0 c -0.498,0 -0.754,-0.257 -0.754,-0.755 l 0,-5.112 L 0,-7.042 0,0 z"
         style="fill:#313665;fill-opacity:1;fill-rule:nonzero;stroke:none"
         id="path444"
         inkscape:connector-curvature="0" />
    </g>
    <g
       id="g446"
       transform="matrix(10.555283,0,0,-10.555283,403.77537,302.44491)"
       inkscape:export-filename="/home/milena/borrado-diario/fierro.png"
       inkscape:export-xdpi="90"
       inkscape:export-ydpi="90">
      <path
         d="m 0,0 c -0.557,0 -0.861,-0.303 -0.861,-0.86 l 0,-2.712 C -0.873,-4.141 -0.57,-4.444 0,-4.431 l 2.711,0 c 0.568,-0.013 0.872,0.29 0.859,0.859 l 0,2.712 C 3.583,-0.292 3.279,0.012 2.711,0 L 0,0 z m 2.771,-5.775 -2.82,-0.012 c -1.429,0 -2.156,0.725 -2.156,2.155 l 0,2.833 c -0.011,1.416 0.715,2.143 2.143,2.143 l 2.833,0 c 1.429,0 2.157,-0.727 2.157,-2.156 l -0.014,-2.82 c 0,-1.43 -0.726,-2.155 -2.143,-2.143"
         style="fill:#313665;fill-opacity:1;fill-rule:nonzero;stroke:none"
         id="path448"
         inkscape:connector-curvature="0" />
    </g>
    <g
       id="g450"
       transform="matrix(10.555283,0,0,-10.555283,133.08937,266.54217)"
       inkscape:export-filename="/home/milena/borrado-diario/fierro.png"
       inkscape:export-xdpi="90"
       inkscape:export-ydpi="90">
      <path
         d="m 0,0 -0.736,0 0,1.209 5.822,0 0,-1.209 -3.102,0 0,-3.536 2.745,0 0,-1.211 -2.745,0 0,-4.388 -1.209,0 0,8.359 C 0.775,-0.264 0.512,0 0,0"
         style="fill:#313665;fill-opacity:1;fill-rule:nonzero;stroke:none"
         id="path452"
         inkscape:connector-curvature="0" />
    </g>
    <g
       id="g454"
       transform="matrix(10.555283,0,0,-10.555283,520.62556,361.09639)"
       inkscape:export-filename="/home/milena/borrado-diario/fierro.png"
       inkscape:export-xdpi="90"
       inkscape:export-ydpi="90">
      <path
         d="m 0,0 c 0,0 -0.903,-0.801 -0.908,-1.508 -0.217,-0.81 -0.324,-1.918 -0.595,-2.026 0.864,0.243 2.458,0.378 3.078,2.512 0.405,-0.73 2.053,-2.35 3.134,-2.512 C 4.465,-2.292 4.687,-1.222 2.793,-0.15 1.846,-0.395 1.117,-0.501 0,0"
         style="fill:#313665;fill-opacity:1;fill-rule:nonzero;stroke:none"
         id="path456"
         inkscape:connector-curvature="0" />
    </g>
    <g
       id="g458"
       transform="matrix(10.555283,0,0,-10.555283,582.06043,296.7546)"
       inkscape:export-filename="/home/milena/borrado-diario/fierro.png"
       inkscape:export-xdpi="90"
       inkscape:export-ydpi="90">
      <path
         d="m 0,0 c 0,0 -0.535,-1.202 -6.279,-1.189 -1.16,-0.286 -2.604,-0.832 -2.83,-0.165 -0.225,0.667 1.134,0.355 1.718,1.354 0.583,0.999 0.454,1.215 0.909,4.123 0.455,1.237 2.237,1.694 3.966,0.714 C -1.633,3.267 -1.867,1.145 0,0"
         style="fill:#313665;fill-opacity:1;fill-rule:nonzero;stroke:none"
         id="path460"
         inkscape:connector-curvature="0" />
    </g>
    <g
       id="g462"
       transform="matrix(10.555283,0,0,-10.555283,488.24828,308.53109)"
       inkscape:export-filename="/home/milena/borrado-diario/fierro.png"
       inkscape:export-xdpi="90"
       inkscape:export-ydpi="90">
      <path
         d="M 0,0 C 0,0 0.671,0.229 0.794,0.352 0.917,0.476 1.798,1.287 2.08,2.115 2.362,2.943 2.435,3.528 2.485,4.001 2.542,4.53 2.7,5.756 3.313,6.099 4.011,6.488 4.8,6.593 5.817,6.241 6.655,5.949 6.703,4.75 6.753,4.407 6.792,4.132 7.171,2.528 7.615,2.098 8.49,1.25 8.919,0.899 9.608,0.634 10.294,0.37 8.325,0.997 7.651,2.909 7.095,4.48 7.242,4.505 7.14,5.235 7.125,5.341 7.004,6.268 6.141,6.585 5.276,6.903 4.745,7.026 3.702,6.857 2.661,6.687 2.169,5.852 2.011,5.147 1.852,4.442 2.005,3.723 1.922,3.032 1.877,2.654 1.622,1.674 1.022,1.181 0.424,0.687 0.135,0.66 -0.053,0.6 -0.614,0.418 -1.007,0.051 -0.958,-0.218 c 0.068,-0.367 0.43,-0.505 1.346,-0.539 0.918,-0.036 2.328,0.351 2.398,0.457 0.069,0.106 3.596,0.229 4.16,0.388 C 7.511,0.247 7.615,0.194 7.72,0.247 7.827,0.3 6.575,-2.503 6.505,-2.626 6.435,-2.75 5.972,-3.905 5.688,-4.076 5.654,-4.097 5.642,-4.16 5.642,-4.16 c 0,0 0.246,-0.141 0.193,-0.247 C 5.782,-4.513 5.693,-4.971 5.13,-5.112 4.565,-5.253 4.265,-5.306 4.09,-5.253 3.913,-5.2 3.613,-5.165 3.562,-4.989 c -0.053,0.177 0.158,0.441 0.21,0.564 l 0.053,0.124 c 0,0 -0.81,0.881 -1.075,1.269 -0.265,0.387 -0.845,1.463 -0.881,1.586 -0.036,0.124 -0.635,0.459 -0.635,0.459 0,0 0.209,-0.584 0.404,-0.944 0.09,-0.168 1.068,-1.847 1.588,-2.194 C 3.296,-4.172 3.067,-4.249 2.997,-4.442 2.926,-4.636 2.855,-4.971 3.474,-5.2 4.09,-5.429 5.147,-5.518 5.499,-5.359 c 0.354,0.159 0.83,0.423 0.812,0.741 -0.019,0.317 -0.353,0.511 -0.458,0.511 -0.107,0 0.406,0.44 0.494,0.546 0.088,0.106 1.056,1.957 1.445,2.856 0.388,0.899 0.476,1.445 0.476,1.445 0,0 -0.16,-0.123 -0.617,-0.247 C 7.192,0.37 5.13,0.176 4.688,0.141 4.249,0.105 2.983,0.026 2.608,0.088 2.415,0.12 1.393,-0.243 0.899,-0.335 0.466,-0.417 -0.712,-0.414 0,0"
         style="fill:#313665;fill-opacity:1;fill-rule:nonzero;stroke:none"
         id="path464"
         inkscape:connector-curvature="0" />
    </g>
    <g
       id="g466"
       transform="matrix(10.555283,0,0,-10.555283,526.27365,336.07404)"
       inkscape:export-filename="/home/milena/borrado-diario/fierro.png"
       inkscape:export-xdpi="90"
       inkscape:export-ydpi="90">
      <path
         d="m 0,0 c 0,0 0.34,0.317 0.704,0.118 0.365,-0.2 2.011,-0.788 2.116,-0.811 0.106,-0.024 1.069,-0.411 1.139,-0.446 0.071,-0.036 0,-0.083 -0.046,-0.083 -0.047,0 -1.951,0.165 -2.127,0.223 C 1.609,-0.94 0.799,-0.846 0.599,-0.811 0.399,-0.775 0.34,-0.775 0.258,-0.822 0.176,-0.869 -2.01,-1.81 -2.01,-1.81 c 0,0 -0.259,-0.14 -0.377,-0.094 -0.117,0.048 -0.222,0.048 0,0.247 C -2.164,-1.458 0,0 0,0"
         style="fill:#313665;fill-opacity:1;fill-rule:nonzero;stroke:none"
         id="path468"
         inkscape:connector-curvature="0" />
    </g>
    <g
       id="g470"
       transform="matrix(10.555283,0,0,-10.555283,520.62556,361.09639)"
       inkscape:export-filename="/home/milena/borrado-diario/fierro.png"
       inkscape:export-xdpi="90"
       inkscape:export-ydpi="90">
      <path
         d="m 0,0 c 0,0 -0.564,-0.291 -0.855,-0.618 -0.291,-0.325 -0.52,-0.713 -0.696,-1.409 -0.177,-0.697 -0.361,-1.375 -0.468,-1.498 -0.105,-0.123 -0.45,-0.546 -0.45,-0.546 0,0 1.288,0.369 1.658,0.44 0.371,0.071 1.393,0.634 1.595,0.864 0.203,0.229 0.6,0.802 0.644,1.066 0.045,0.264 0.115,0.538 0.115,0.538 0,0 -0.142,-1.075 0.713,-1.533 C 3.111,-3.155 4.16,-3.667 4.292,-3.684 4.424,-3.702 5.166,-3.922 5.218,-3.975 5.271,-4.028 5.086,-3.658 5.041,-3.56 4.998,-3.463 4.698,-2.565 4.68,-2.168 4.662,-1.771 4.565,-1.19 4.213,-0.899 3.859,-0.608 2.865,-0.132 2.865,-0.132 L 2.793,-0.15 2.688,-0.203 c 0,0 0.105,-0.053 0.158,-0.079 0.054,-0.026 1.023,-0.546 1.314,-1.445 0.291,-0.899 0.3,-1.463 0.309,-1.49 0.009,-0.026 -1.428,0.811 -1.684,1.084 -0.256,0.273 -0.714,0.731 -0.714,1.657 0,0.423 -0.106,0.08 -0.106,0.08 l -0.512,0.008 c 0,0 0.045,-0.291 0,-0.458 -0.042,-0.168 -0.316,-1.419 -1.215,-1.824 -0.899,-0.406 -1.4,-0.652 -1.454,-0.705 -0.054,-0.053 0.334,1.216 0.378,1.471 0.045,0.256 0.194,1.208 0.582,1.463 0.387,0.256 0.485,0.335 0.485,0.335 L 0,0 z"
         style="fill:#313665;fill-opacity:1;fill-rule:nonzero;stroke:none"
         id="path472"
         inkscape:connector-curvature="0" />
    </g>
    <g
       id="g474"
       transform="matrix(10.555283,0,0,-10.555283,151.39645,377.62073)"
       inkscape:export-filename="/home/milena/borrado-diario/fierro.png"
       inkscape:export-xdpi="90"
       inkscape:export-ydpi="90">
      <path
         d="m 0,0 -0.932,-3.24 c -0.051,-0.192 -0.078,-0.329 -0.078,-0.413 0,-0.072 0.025,-0.127 0.074,-0.165 0.049,-0.038 0.163,-0.064 0.342,-0.076 l -0.028,-0.107 -1.487,0 0.04,0.107 c 0.157,0.002 0.262,0.015 0.312,0.036 0.081,0.036 0.142,0.083 0.183,0.14 0.062,0.089 0.126,0.248 0.191,0.478 l 0.671,2.327 c 0.041,0.142 0.064,0.222 0.068,0.241 0.005,0.039 0.007,0.077 0.007,0.115 0,0.067 -0.017,0.12 -0.053,0.158 -0.037,0.039 -0.086,0.058 -0.151,0.058 -0.05,0 -0.128,-0.012 -0.233,-0.036 L -1.114,-0.273 -0.137,0 0,0 z"
         style="fill:#737372;fill-opacity:1;fill-rule:nonzero;stroke:none"
         id="path476"
         inkscape:connector-curvature="0" />
    </g>
    <g
       id="g478"
       transform="matrix(10.555283,0,0,-10.555283,185.96922,379.21247)"
       inkscape:export-filename="/home/milena/borrado-diario/fierro.png"
       inkscape:export-xdpi="90"
       inkscape:export-ydpi="90">
      <path
         d="m 0,0 c -0.113,0 -0.227,-0.044 -0.342,-0.131 -0.115,-0.087 -0.233,-0.27 -0.355,-0.548 -0.123,-0.278 -0.24,-0.636 -0.352,-1.074 -0.144,-0.572 -0.217,-1.06 -0.217,-1.462 0,-0.201 0.043,-0.351 0.13,-0.451 0.087,-0.099 0.192,-0.149 0.316,-0.149 0.118,0 0.218,0.04 0.302,0.119 0.221,0.208 0.41,0.564 0.568,1.067 0.257,0.821 0.384,1.489 0.384,2.004 0,0.215 -0.043,0.374 -0.129,0.474 C 0.219,-0.05 0.117,0 0,0 m -0.004,0.151 c 0.246,0 0.454,-0.103 0.623,-0.309 0.168,-0.206 0.253,-0.531 0.253,-0.977 0,-0.381 -0.062,-0.77 -0.188,-1.167 -0.125,-0.398 -0.303,-0.743 -0.53,-1.035 -0.179,-0.23 -0.369,-0.395 -0.568,-0.496 -0.117,-0.057 -0.251,-0.086 -0.402,-0.086 -0.251,0 -0.461,0.103 -0.63,0.309 -0.169,0.206 -0.253,0.533 -0.253,0.981 0,0.44 0.084,0.883 0.254,1.329 0.199,0.519 0.453,0.915 0.761,1.185 0.202,0.177 0.428,0.266 0.68,0.266"
         style="fill:#737372;fill-opacity:1;fill-rule:nonzero;stroke:none"
         id="path480"
         inkscape:connector-curvature="0" />
    </g>
    <g
       id="g482"
       transform="matrix(10.555283,0,0,-10.555283,245.17802,393.80831)"
       inkscape:export-filename="/home/milena/borrado-diario/fierro.png"
       inkscape:export-xdpi="90"
       inkscape:export-ydpi="90">
      <path
         d="m 0,0 c -0.123,0 -0.254,-0.059 -0.393,-0.176 -0.198,-0.163 -0.375,-0.406 -0.527,-0.727 -0.153,-0.323 -0.23,-0.614 -0.23,-0.875 0,-0.13 0.033,-0.232 0.099,-0.309 0.066,-0.077 0.142,-0.115 0.228,-0.115 0.208,0 0.436,0.156 0.682,0.467 0.33,0.412 0.496,0.835 0.496,1.268 0,0.163 -0.032,0.281 -0.095,0.356 C 0.196,-0.037 0.109,0 0,0 M 1.03,0.151 0.467,-1.811 0.402,-2.076 C 0.396,-2.1 0.395,-2.121 0.395,-2.137 c 0,-0.031 0.009,-0.059 0.029,-0.083 0.013,-0.017 0.033,-0.025 0.056,-0.025 0.024,0 0.057,0.016 0.098,0.046 0.074,0.055 0.174,0.171 0.301,0.345 L 0.977,-1.922 C 0.845,-2.123 0.708,-2.276 0.566,-2.38 0.426,-2.484 0.295,-2.536 0.176,-2.536 c -0.082,0 -0.144,0.02 -0.186,0.061 -0.041,0.04 -0.062,0.1 -0.062,0.18 0,0.095 0.021,0.22 0.064,0.373 l 0.061,0.219 c -0.254,-0.33 -0.486,-0.561 -0.697,-0.693 -0.153,-0.094 -0.303,-0.14 -0.449,-0.14 -0.141,0 -0.262,0.058 -0.364,0.174 -0.102,0.116 -0.152,0.276 -0.152,0.48 0,0.306 0.091,0.63 0.274,0.971 0.183,0.342 0.417,0.614 0.702,0.818 0.221,0.162 0.429,0.244 0.625,0.244 0.119,0 0.219,-0.031 0.297,-0.093 0.077,-0.063 0.137,-0.166 0.178,-0.309 l 0.103,0.33 0.46,0.072 z"
         style="fill:#737372;fill-opacity:1;fill-rule:nonzero;stroke:none"
         id="path484"
         inkscape:connector-curvature="0" />
    </g>
    <g
       id="g486"
       transform="matrix(10.555283,0,0,-10.555283,295.52149,378.22872)"
       inkscape:export-filename="/home/milena/borrado-diario/fierro.png"
       inkscape:export-xdpi="90"
       inkscape:export-ydpi="90">
      <path
         d="m 0,0 0.086,0 c 0,-0.247 -0.053,-0.435 -0.158,-0.564 -0.106,-0.129 -0.231,-0.194 -0.373,-0.194 -0.143,0 -0.305,0.059 -0.488,0.176 -0.182,0.118 -0.296,0.186 -0.338,0.205 -0.035,0.017 -0.073,0.025 -0.116,0.025 -0.07,0 -0.127,-0.025 -0.171,-0.075 -0.044,-0.051 -0.079,-0.157 -0.106,-0.32 l -0.093,0 c 0.015,0.27 0.072,0.464 0.174,0.58 0.103,0.116 0.226,0.174 0.372,0.174 0.139,0 0.311,-0.068 0.514,-0.202 0.203,-0.136 0.343,-0.203 0.42,-0.203 0.067,0 0.123,0.024 0.166,0.075 C -0.057,-0.261 -0.02,-0.153 0,0 M -1.516,-1.325 -1.9,-2.644 c 0.359,0.539 0.634,0.894 0.828,1.063 0.192,0.171 0.377,0.256 0.554,0.256 0.096,0 0.174,-0.033 0.237,-0.097 0.062,-0.065 0.094,-0.147 0.094,-0.248 0,-0.118 -0.028,-0.272 -0.083,-0.463 l -0.352,-1.219 c -0.04,-0.141 -0.062,-0.227 -0.062,-0.258 0,-0.026 0.008,-0.049 0.024,-0.066 0.015,-0.018 0.032,-0.027 0.049,-0.027 0.021,0 0.049,0.012 0.083,0.036 0.102,0.081 0.216,0.205 0.337,0.37 l 0.089,-0.055 c -0.179,-0.255 -0.349,-0.439 -0.509,-0.549 -0.113,-0.074 -0.213,-0.111 -0.302,-0.111 -0.071,0 -0.128,0.021 -0.171,0.064 -0.041,0.044 -0.062,0.101 -0.062,0.173 0,0.093 0.032,0.253 0.097,0.478 l 0.337,1.164 c 0.041,0.143 0.062,0.256 0.062,0.337 0,0.038 -0.013,0.069 -0.038,0.093 -0.025,0.024 -0.056,0.036 -0.091,0.036 -0.053,0 -0.118,-0.022 -0.196,-0.068 -0.14,-0.086 -0.289,-0.229 -0.443,-0.429 -0.154,-0.2 -0.317,-0.455 -0.49,-0.763 -0.091,-0.166 -0.166,-0.345 -0.227,-0.539 l -0.142,-0.478 -0.436,0 0.528,1.811 c 0.063,0.217 0.093,0.348 0.093,0.391 0,0.043 -0.016,0.081 -0.051,0.113 -0.035,0.032 -0.076,0.048 -0.125,0.048 -0.023,0 -0.064,-0.004 -0.121,-0.014 l -0.111,-0.014 -0.019,0.104 1.003,0.18 z"
         style="fill:#737372;fill-opacity:1;fill-rule:nonzero;stroke:none"
         id="path488"
         inkscape:connector-curvature="0" />
    </g>
    <g
       id="g490"
       transform="matrix(10.555283,0,0,-10.555283,328.56898,399.6844)"
       inkscape:export-filename="/home/milena/borrado-diario/fierro.png"
       inkscape:export-xdpi="90"
       inkscape:export-ydpi="90">
      <path
         d="m 0,0 c 0,0.179 -0.044,0.317 -0.133,0.413 -0.088,0.096 -0.202,0.144 -0.342,0.144 -0.281,0 -0.542,-0.203 -0.781,-0.609 -0.238,-0.406 -0.357,-0.81 -0.357,-1.213 0,-0.182 0.047,-0.322 0.14,-0.422 0.094,-0.099 0.209,-0.149 0.349,-0.149 0.272,0 0.528,0.202 0.767,0.606 C -0.119,-0.827 0,-0.417 0,0 m 0.479,-0.198 c 0,-0.29 -0.078,-0.576 -0.231,-0.86 -0.153,-0.284 -0.366,-0.508 -0.639,-0.673 -0.273,-0.166 -0.539,-0.248 -0.798,-0.248 -0.263,0 -0.479,0.084 -0.647,0.253 -0.167,0.168 -0.251,0.386 -0.251,0.652 0,0.284 0.081,0.57 0.244,0.855 0.163,0.284 0.381,0.51 0.654,0.677 0.273,0.167 0.537,0.25 0.791,0.25 0.255,0 0.466,-0.085 0.63,-0.254 0.164,-0.169 0.247,-0.386 0.247,-0.652"
         style="fill:#737372;fill-opacity:1;fill-rule:nonzero;stroke:none"
         id="path492"
         inkscape:connector-curvature="0" />
    </g>
    <g
       id="g494"
       transform="matrix(10.555283,0,0,-10.555283,366.3981,392.21658)"
       inkscape:export-filename="/home/milena/borrado-diario/fierro.png"
       inkscape:export-xdpi="90"
       inkscape:export-ydpi="90">
      <path
         d="m 0,0 -0.176,-0.891 -0.107,0 c -0.01,0.259 -0.065,0.447 -0.165,0.564 -0.101,0.117 -0.226,0.176 -0.374,0.176 -0.117,0 -0.211,-0.033 -0.282,-0.097 -0.071,-0.064 -0.106,-0.144 -0.106,-0.237 0,-0.062 0.014,-0.123 0.041,-0.182 0.028,-0.058 0.089,-0.139 0.185,-0.242 0.25,-0.275 0.41,-0.482 0.484,-0.62 0.072,-0.138 0.109,-0.268 0.109,-0.393 0,-0.201 -0.084,-0.379 -0.25,-0.534 -0.166,-0.154 -0.377,-0.231 -0.63,-0.231 -0.139,0 -0.299,0.032 -0.481,0.097 -0.062,0.024 -0.111,0.036 -0.148,0.036 -0.086,0 -0.152,-0.045 -0.198,-0.133 l -0.103,0 0.176,0.937 0.107,0 c 0.01,-0.294 0.07,-0.502 0.18,-0.623 0.11,-0.121 0.261,-0.181 0.453,-0.181 0.145,0 0.262,0.04 0.348,0.122 0.085,0.081 0.129,0.182 0.129,0.302 0,0.076 -0.015,0.148 -0.046,0.215 -0.056,0.115 -0.169,0.275 -0.341,0.48 -0.173,0.205 -0.284,0.358 -0.332,0.459 -0.05,0.102 -0.075,0.205 -0.075,0.308 0,0.187 0.069,0.345 0.206,0.474 0.136,0.129 0.31,0.194 0.523,0.194 0.062,0 0.119,-0.005 0.17,-0.015 0.025,-0.006 0.089,-0.029 0.187,-0.066 0.1,-0.037 0.166,-0.056 0.201,-0.056 0.081,0 0.15,0.046 0.208,0.137 L 0,0 z"
         style="fill:#737372;fill-opacity:1;fill-rule:nonzero;stroke:none"
         id="path496"
         inkscape:connector-curvature="0" />
    </g>
  </g>
</svg>
